Coordinates
version=1
nRows=14
nColumns=40
inDegrees=yes

Units are S.I. units (second, meters, Newtons, ...)
Angles are in degrees.

endheader
time	pelvis_tilt	pelvis_list	pelvis_rotation	pelvis_tx	pelvis_ty	pelvis_tz	hip_flexion_r	hip_adduction_r	hip_rotation_r	knee_angle_r	knee_angle_r_beta	ankle_angle_r	subtalar_angle_r	mtp_angle_r	hip_flexion_l	hip_adduction_l	hip_rotation_l	knee_angle_l	knee_angle_l_beta	ankle_angle_l	subtalar_angle_l	mtp_angle_l	lumbar_extension	lumbar_bending	lumbar_rotation	arm_flex_r	arm_add_r	arm_rot_r	elbow_flex_r	pro_sup_r	wrist_flex_r	wrist_dev_r	arm_flex_l	arm_add_l	arm_rot_l	elbow_flex_l	pro_sup_l	wrist_flex_l	wrist_dev_l
     10.52000000	     -2.60704547	     -4.32228191	      6.22521030	      1.05295837	      0.92254857	      0.45371976	      4.51934527	     -2.72806118	    -13.03960845	     29.85310305	     29.85310305	     17.01493929	     -3.41083046	     -6.18171814	     25.07279440	     -5.32082467	     -0.57129761	     27.09853610	     27.09853610	      7.75044890	    -13.35757340	      1.92330456	     -9.68785152	      3.55310124	      3.62367202	     14.36910454	    -16.67079204	      7.53230872	     59.14351942	     44.85029095	      0.00000000	      0.00000000	     -0.66613139	    -10.06066373	    -15.96547775	     34.25689298	     45.52370617	      0.00000000	      0.00000000
     10.53371429	     -2.56303540	     -4.23405832	      6.02637188	      1.05334651	      0.92327062	      0.45053378	      5.88226202	     -3.41530197	    -12.44728356	     33.05549744	     33.05549744	     15.81437786	     -4.69717653	     -7.28510265	     24.48229050	     -5.15130190	     -0.90996876	     27.04212048	     27.04212048	      8.32517606	    -13.19010358	      1.79506611	     -9.71140589	      3.29128912	      3.57794550	     13.25396282	    -16.62652896	      7.80124274	     57.87951952	     44.88357291	      0.00000000	      0.00000000	     -0.28316358	    -10.15941521	    -15.87034088	     34.82720585	     45.52526650	      0.00000000	      0.00000000
     10.54742857	     -2.57161718	     -4.24116174	      5.82521500	      1.05356880	      0.92397705	      0.44759581	      7.28603954	     -3.82130907	    -11.52432367	     35.82342796	     35.82342796	     12.12807404	     -7.96706622	    -13.95125884	     23.96790723	     -5.11568904	     -1.30375811	     26.96869993	     26.96869993	      8.86883639	    -12.80287372	      1.83683595	     -9.60585039	      3.12844473	      2.87725545	     13.38042267	    -15.75313413	      8.06381004	     53.53799968	     45.06234325	      0.00000000	      0.00000000	     -0.99861110	    -10.57688580	    -14.81490864	     36.95639623	     45.45876657	      0.00000000	      0.00000000
     10.56114286	     -2.56331202	     -4.10697614	      5.58424719	      1.05357384	      0.92459875	      0.44460374	      9.08672376	     -4.59214201	    -10.90200398	     39.56381140	     39.56381140	     10.54063861	     -9.17171264	    -14.43546172	     23.34670166	     -4.90058101	     -1.67979191	     26.75399052	     26.75399052	      9.25233956	    -12.65365443	      1.62359544	     -9.64227324	      2.85679100	      2.86559384	     12.08207209	    -15.82260026	      8.25992596	     52.66974901	     45.08170051	      0.00000000	      0.00000000	     -0.53141195	    -10.71613892	    -14.80259744	     37.42991998	     45.47462262	      0.00000000	      0.00000000
     10.57485714	     -2.48269411	     -3.99928729	      5.37312652	      1.05341657	      0.92526367	      0.44171015	     10.91027688	     -5.26707501	    -10.24851563	     43.32343053	     43.32343053	      8.65039980	    -10.59398303	    -14.72022352	     22.68641207	     -4.71934303	     -2.04023983	     26.56284988	     26.56284988	      9.56240018	    -12.50357931	      1.40544385	     -9.77610011	      2.66091272	      2.77651038	     10.91228687	    -15.86055261	      8.34410165	     51.61966725	     45.11241324	      0.00000000	      0.00000000	     -0.04222921	    -10.86875318	    -14.75957200	     37.97250793	     45.48529054	      0.00000000	      0.00000000
     10.58857143	     -2.48339301	     -4.06016533	      5.14595126	      1.05307922	      0.92583694	      0.43915712	     12.83671949	     -5.55102587	     -9.35373473	     46.78245886	     46.78245886	      5.81063784	    -13.02408855	    -16.24427852	     22.11494754	     -4.73125183	     -2.37918653	     26.27945578	     26.27945578	      9.60385720	    -12.43118736	      0.48594202	     -9.79152483	      2.55891966	      2.40087056	     10.64928926	    -15.11422354	      7.38867658	     47.75221845	     45.31313354	      0.00000000	      0.00000000	     -0.33008664	    -11.29487093	    -13.71703594	     39.88099506	     45.44486495	      0.00000000	      0.00000000
     10.60228571	     -2.36085386	     -3.93562972	      4.93890729	      1.05260229	      0.92648810	      0.43640664	     14.71410905	     -6.17915617	     -8.76595958	     50.37839630	     50.37839630	      3.75901207	    -14.04182496	    -15.85636006	     21.42101777	     -4.51885949	     -2.69153149	     26.06206030	     26.06206030	      9.90360005	    -12.32089246	      0.34655677	    -10.03273405	      2.38268702	      2.14574379	      9.53036292	    -15.20673157	      7.42044773	     46.96766517	     45.33528918	      0.00000000	      0.00000000	      0.20218090	    -11.51532186	    -13.70343072	     40.30739859	     45.45945198	      0.00000000	      0.00000000
     10.61600000	     -2.33113517	     -4.01639142	      4.68392287	      1.05193612	      0.92703421	      0.43408327	     16.76272699	     -6.33513211	     -7.94188565	     53.82385949	     53.82385949	      2.21609324	    -15.07035630	    -13.26672130	     20.87825233	     -4.56307097	     -3.01661316	     25.85356741	     25.85356741	     10.06905594	    -12.22146505	     -0.14356058	    -10.13604493	      2.37115083	      2.19002293	      8.78263714	    -14.97479073	      6.58486236	     44.17584698	     45.48098972	      0.00000000	      0.00000000	      0.48714773	    -11.79617495	    -12.96999340	     41.66595994	     45.43850196	      0.00000000	      0.00000000
     10.62971429	     -2.27124314	     -3.94071473	      4.44440048	      1.05118439	      0.92763550	      0.43159638	     18.65904580	     -6.77329006	     -7.39331335	     56.85445758	     56.85445758	      0.40820282	    -15.67776809	    -12.45802697	     20.25293066	     -4.40351474	     -3.32616055	     25.57820131	     25.57820131	     10.33553115	    -12.13027397	     -0.25293196	    -10.32403705	      2.26698490	      1.82228790	      7.76532083	    -15.04407684	      6.47736944	     43.32321186	     45.51277670	      0.00000000	      0.00000000	      0.95319735	    -12.07163310	    -12.89699261	     42.10426303	     45.44794396	      0.00000000	      0.00000000
     10.64342857	     -2.21731694	     -4.02763097	      4.18586766	      1.05031776	      0.92827316	      0.42943594	     20.65594824	     -6.85045060	     -6.75788523	     59.84845502	     59.84845502	      0.57163898	    -15.17379688	     -6.48895105	     19.68450512	     -4.45609123	     -3.65524679	     25.33037885	     25.33037885	     10.44000041	    -11.99190756	     -0.75102141	    -10.46169753	      2.31564326	      1.54837098	      7.64506986	    -14.42080437	      4.46465010	     39.54784414	     45.76038864	      0.00000000	      0.00000000	      0.92632540	    -12.66400384	    -11.35913943	     43.78241842	     45.38704122	      0.00000000	      0.00000000
     10.65714286	     -2.15738148	     -4.03288480	      3.91733534	      1.04939065	      0.92898173	      0.42721232	     22.33967046	     -7.03948369	     -6.29796792	     61.95018004	     61.95018004	     -0.76215099	    -15.51246469	     -6.02627360	     19.08106646	     -4.39110690	     -3.94271584	     25.05166448	     25.05166448	     10.66677973	    -11.91130332	     -0.78239728	    -10.65666167	      2.33332185	      1.28701206	      6.64098497	    -14.68246118	      4.36081734	     38.86990915	     45.78494774	      0.00000000	      0.00000000	      1.47791640	    -12.90827050	    -11.36198470	     44.19425678	     45.40508754	      0.00000000	      0.00000000
     10.67085714	     -2.16486657	     -4.09708133	      3.56958934	      1.04842229	      0.92970388	      0.42524700	     23.99866436	     -7.05471922	     -5.83022441	     63.57559990	     63.57559990	     -1.58947564	    -15.61374355	     -5.19728787	     18.52542831	     -4.41873949	     -4.31872068	     24.72743231	     24.72743231	     10.88904285	    -11.77064529	     -0.83678360	    -10.77599805	      2.41590356	      1.38884801	      5.60471424	    -14.93738436	      4.11865282	     37.70949157	     45.83602494	      0.00000000	      0.00000000	      2.08637721	    -13.01399175	    -11.20699764	     44.90913389	     45.41466788	      0.00000000	      0.00000000
     10.68457143	     -2.05164946	     -4.27902049	      3.22279930	      1.04747412	      0.93065072	      0.42345272	     25.39631541	     -6.91091218	     -5.54077847	     64.72446007	     64.72446007	     -1.52939647	    -15.13514767	     -3.05541657	     17.87146721	     -4.61804475	     -4.76320468	     24.44984669	     24.44984669	     11.12091930	    -11.44908755	     -1.00820506	    -11.02491189	      2.61873960	      1.64946404	      4.99548617	    -15.08067801	      3.04645476	     35.23721559	     45.98889525	      0.00000000	      0.00000000	      2.58714012	    -13.33378139	    -10.35688659	     46.26440666	     45.38835887	      0.00000000	      0.00000000
     10.69828571	     -2.09250578	     -4.38324182	      2.87244999	      1.04645594	      0.93144092	      0.42175809	     26.84311958	     -6.82085850	     -5.28731963	     65.38522364	     65.38522364	     -1.03321392	    -14.42048361	     -0.81314678	     17.32698906	     -4.69328320	     -5.13711148	     24.06356190	     24.06356190	     11.30315116	    -11.23546425	     -1.07707696	    -11.09785136	      2.75438335	      1.13816817	      5.09054104	    -14.63493803	      0.69212229	     32.52845185	     46.22882471	      0.00000000	      0.00000000	      2.42370677	    -14.07015146	     -8.79186071	     47.57124883	     45.35096924	      0.00000000	      0.00000000
